<svg width="180" height="43" viewBox="0 0 180 43" fill="none" xmlns="http://www.w3.org/2000/svg">
<path d="M61.2763 14.5866H58.4141V29.3136H61.2763V14.5866Z" fill="#2A3362"/>
<path d="M72.354 24.0883C72.354 26.1209 71.0464 27.0341 69.3052 27.0341C67.5641 27.0341 66.4003 26.1209 66.4003 24.1914V18.9431H63.5381V24.8559C63.5381 27.7999 65.3841 29.5215 68.4542 29.5215C70.3837 29.5215 71.4621 28.8108 72.1852 28.0077H72.3522L72.601 29.3154H75.234V18.9431H72.354V24.0883Z" fill="#2A3362"/>
<path d="M100.431 27.2615C98.3363 27.2615 97.1548 26.3074 96.9682 24.918H106.052C106.094 24.6292 106.115 24.3376 106.115 24.0457C106.095 20.3146 103.272 18.7352 100.252 18.7352C96.7462 18.7352 94.1113 20.8317 94.1113 24.2127C94.1113 27.4267 96.6431 29.5215 100.438 29.5215C103.613 29.5215 105.727 28.1125 106.164 25.9539H103.336C102.982 26.8049 101.966 27.2615 100.431 27.2615ZM100.253 20.9969C102.08 20.9969 103.137 21.8053 103.304 22.9513H97.0304C97.2987 21.8533 98.3576 20.9969 100.244 20.9969H100.253Z" fill="#2A3362"/>
<path d="M110.978 20.4319H110.8L110.53 18.9377H107.929V29.3154H110.791V24.8559C110.791 22.8429 111.951 21.7236 114.11 21.7236C114.502 21.7182 114.894 21.7527 115.279 21.8266V18.9431H114.879C112.971 18.9431 111.786 19.3375 110.978 20.4319Z" fill="#2A3362"/>
<path d="M129.332 26.0782H129.167L126.719 19.5862H123.773L121.367 26.0587H121.181L118.899 18.9431H116.057L119.562 29.3154H122.675L125.164 22.6972H125.329L127.777 29.3154H130.91L134.415 18.9431H131.572L129.332 26.0782Z" fill="#2A3362"/>
<path d="M145.807 26.295V22.8234C145.807 20.002 143.421 18.737 140.454 18.737C137.302 18.737 135.332 20.2312 135.062 22.468H137.924C138.132 21.4926 138.962 20.9543 140.454 20.9543C141.946 20.9543 142.941 21.514 142.941 22.6546V22.9193L138.274 23.2747C136.117 23.4417 134.543 24.3958 134.543 26.4283C134.543 28.523 136.348 29.518 139.002 29.518C141.145 29.518 142.451 28.921 143.251 28.0202H143.393C143.842 29.0329 144.754 29.3119 145.745 29.3119H146.948V27.1994H146.678C146.075 27.1994 145.807 26.9098 145.807 26.295ZM142.943 25.1953C142.943 26.8352 140.989 27.3735 139.313 27.3735C138.173 27.3735 137.427 27.0839 137.427 26.295C137.427 25.5844 138.07 25.2379 139.026 25.1544L142.945 24.8648L142.943 25.1953Z" fill="#2A3362"/>
<path d="M156.39 18.9431L153.05 26.4531H152.863L149.482 18.9431H146.391L151.223 29.3154H154.647L159.458 18.9431H156.39Z" fill="#2A3362"/>
<path d="M168.608 25.9539C168.252 26.8049 167.238 27.2615 165.703 27.2615C163.608 27.2615 162.426 26.3074 162.24 24.918H171.324C171.366 24.6292 171.387 24.3376 171.386 24.0457C171.367 20.3146 168.544 18.7352 165.523 18.7352C162.018 18.7352 159.385 20.8317 159.385 24.2127C159.385 27.4267 161.915 29.5215 165.71 29.5215C168.885 29.5215 170.999 28.1125 171.436 25.9539H168.608ZM165.516 20.9969C167.343 20.9969 168.4 21.8053 168.567 22.9513H162.295C162.567 21.8533 163.622 20.9969 165.509 20.9969H165.516Z" fill="#2A3362"/>
<path d="M53.7625 18.1791C53.7625 17.2658 54.4057 16.8732 55.2354 16.8732C55.6213 16.8768 56.005 16.9323 56.376 17.0384L56.854 14.9633C56.1611 14.7183 55.4319 14.5921 54.6971 14.5901C52.581 14.5901 50.8807 15.7112 50.8807 18.0334V18.943H48.4111V21.2154H50.8807V29.3154H53.7625V21.2136H56.989V18.943H53.7625V18.1791Z" fill="#2A3362"/>
<path d="M81.5505 16.0186H78.8855L78.7362 18.943H76.4834V21.2154H78.6829V26.3287C78.6829 28.0699 79.5713 29.5268 82.2363 29.5268C82.9272 29.5268 83.616 29.4505 84.2902 29.2994V27.1158C83.9015 27.203 83.5051 27.2517 83.1069 27.2615C81.6767 27.2615 81.5523 26.4531 81.5523 25.8295V21.2101H84.395V18.943H81.5505V16.0186Z" fill="#2A3362"/>
<path d="M90.5382 16.0186H87.882L87.7328 18.943H85.4746V21.2154H87.6742V26.3287C87.6742 28.0699 88.5625 29.5268 91.2275 29.5268C91.9168 29.5246 92.6038 29.4466 93.2761 29.294V27.1158C92.8873 27.203 92.491 27.2517 92.0928 27.2615C90.6625 27.2615 90.5382 26.4531 90.5382 25.8295V21.2101H93.3898V18.943H90.5382V16.0186Z" fill="#2A3362"/>
<path d="M8.56934 14.1939C8.56934 12.5292 9.05615 11.1078 10.0777 10.0862L11.8544 11.8629C9.87698 13.8333 11.6039 19.9593 17.2343 25.595C22.8646 31.2306 28.9942 32.9558 30.9698 30.9819L32.7465 32.7586C29.4135 36.0917 21.8217 33.7269 15.4664 27.3699C11.0585 22.9601 8.56934 17.957 8.56934 14.1939Z" fill="#009A46"/>
<path d="M19.7726 34.2901C18.1078 34.2901 16.6865 33.8033 15.6631 32.7817L17.4398 31.005C19.4137 32.9789 25.5397 31.252 31.1754 25.6181C36.811 19.9842 38.5344 13.8582 36.5605 11.8843L38.3372 10.1076C41.672 13.4407 39.3055 21.0325 32.9485 27.3877C28.5388 31.8028 23.5356 34.2901 19.7726 34.2901Z" fill="#FF5805"/>
<path d="M33.5366 24.8452C32.4582 21.7396 30.2551 18.4207 27.3324 15.4998C20.9772 9.14285 13.3854 6.7763 10.0524 10.1111C9.81606 10.3492 10.0204 10.9373 10.5107 11.4277C11.0011 11.918 11.5892 12.1206 11.8255 11.8843C13.8012 9.91038 19.9272 11.6373 25.5611 17.273C28.2261 19.938 30.2125 22.914 31.1701 25.6678C32.0087 28.0824 31.927 30.0296 30.9498 31.0068C30.7117 31.2431 30.9178 31.833 31.4064 32.3215C31.895 32.8101 32.4848 33.0162 32.7229 32.7782C34.4303 31.0708 34.7199 28.2494 33.5366 24.8452Z" fill="#F5AFCB"/>
<path d="M38.3336 10.1111C36.6226 8.40017 33.8048 8.11057 30.3971 9.29562C27.2932 10.3723 23.9726 12.5772 21.0517 15.498C14.6965 21.8533 12.3299 29.4451 15.663 32.7799C15.9011 33.0162 16.4892 32.8119 16.9795 32.3233C17.4699 31.8347 17.6742 31.2448 17.4361 31.0068C15.4569 29.0329 17.1892 22.9068 22.8248 17.2712C25.4899 14.6061 28.4658 12.6198 31.2197 11.6622C33.6342 10.8254 35.5815 10.9053 36.5604 11.8825C36.7967 12.1188 37.3866 11.9145 37.8752 11.4241C38.3638 10.9337 38.5699 10.3474 38.3336 10.1111Z" fill="#FF9B00"/>
</svg>
