<svg width="32" height="32" viewBox="0 0 32 32" fill="none" xmlns="http://www.w3.org/2000/svg">
<g clip-path="url(#clip0_108_120475)">
<path d="M16.0001 20.6667H10.0001C8.13933 20.6667 7.20895 20.6667 6.45189 20.8963C4.74735 21.4134 3.41347 22.7473 2.8964 24.4518C2.66675 25.2089 2.66675 26.1393 2.66675 28M25.3334 28V20M21.3334 24H29.3334M19.3334 10C19.3334 13.3137 16.6471 16 13.3334 16C10.0197 16 7.33341 13.3137 7.33341 10C7.33341 6.68629 10.0197 4 13.3334 4C16.6471 4 19.3334 6.68629 19.3334 10Z" stroke="#00359E" stroke-width="2" stroke-linecap="round" stroke-linejoin="round"/>
<path d="M22.6667 10.6663C22.6667 12.1391 23.8607 13.333 25.3334 13.333H28.0001C29.4728 13.333 30.6667 12.1391 30.6667 10.6663C30.6667 9.19358 29.4728 7.99967 28.0001 7.99967H25.3334C23.8607 7.99967 22.6667 6.80577 22.6667 5.33301C22.6667 3.86025 23.8607 2.66634 25.3334 2.66634H28.0001C29.4728 2.66634 30.6667 3.86025 30.6667 5.33301M26.6667 1.33301V14.6663" stroke="#00359E" stroke-width="2" stroke-linecap="round" stroke-linejoin="round"/>
</g>
<defs>
<clipPath id="clip0_108_120475">
<rect width="32" height="32" fill="white"/>
</clipPath>
</defs>
</svg>
