<svg width="32" height="32" viewBox="0 0 32 32" fill="none" xmlns="http://www.w3.org/2000/svg">
<path d="M21.3334 27.9997V26.3997C21.3334 24.1595 21.3334 23.0394 20.8974 22.1837C20.5139 21.4311 19.902 20.8191 19.1494 20.4356C18.2937 19.9997 17.1736 19.9997 14.9334 19.9997H9.06675C6.82654 19.9997 5.70643 19.9997 4.85079 20.4356C4.09814 20.8191 3.48622 21.4311 3.10272 22.1837C2.66675 23.0394 2.66675 24.1595 2.66675 26.3997V27.9997M16.6667 9.99967C16.6667 12.577 14.5774 14.6663 12.0001 14.6663C9.42275 14.6663 7.33341 12.577 7.33341 9.99967C7.33341 7.42235 9.42275 5.33301 12.0001 5.33301C14.5774 5.33301 16.6667 7.42235 16.6667 9.99967Z" stroke="#00359E" stroke-width="2" stroke-linecap="round" stroke-linejoin="round"/>
<path d="M20 10.6663C20 12.1391 21.1939 13.333 22.6667 13.333H25.3333C26.8061 13.333 28 12.1391 28 10.6663C28 9.19358 26.8061 7.99967 25.3333 7.99967H22.6667C21.1939 7.99967 20 6.80577 20 5.33301C20 3.86025 21.1939 2.66634 22.6667 2.66634H25.3333C26.8061 2.66634 28 3.86025 28 5.33301M24 1.33301V14.6663" stroke="#00359E" stroke-width="2" stroke-linecap="round" stroke-linejoin="round"/>
</svg>
