<svg width="24" height="20" viewBox="0 0 24 20" fill="none" xmlns="http://www.w3.org/2000/svg">
<path d="M1 4.3L9.98141 10.587C10.7087 11.0961 11.0723 11.3506 11.4679 11.4492C11.8173 11.5363 12.1827 11.5363 12.5321 11.4492C12.9277 11.3506 13.2913 11.0961 14.0186 10.587L23 4.3M6.28 18.6H17.72C19.5682 18.6 20.4923 18.6 21.1982 18.2403C21.8191 17.9239 22.3239 17.4191 22.6403 16.7982C23 16.0923 23 15.1682 23 13.32V6.28C23 4.43183 23 3.50774 22.6403 2.80183C22.3239 2.1809 21.8191 1.67606 21.1982 1.35968C20.4923 1 19.5682 1 17.72 1H6.28C4.43183 1 3.50774 1 2.80183 1.35968C2.1809 1.67606 1.67606 2.1809 1.35968 2.80183C1 3.50774 1 4.43183 1 6.28V13.32C1 15.1682 1 16.0923 1.35968 16.7982C1.67606 17.4191 2.1809 17.9239 2.80183 18.2403C3.50774 18.6 4.43183 18.6 6.28 18.6Z" stroke="#00359E" stroke-width="2" stroke-linecap="round" stroke-linejoin="round"/>
</svg>
