<svg width="56" height="56" viewBox="0 0 56 56" fill="none" xmlns="http://www.w3.org/2000/svg">
<rect x="4" y="4" width="48" height="48" rx="24" fill="#D1E0FF"/>
<path d="M32.5 30H32.51M19 21V35C19 36.1046 19.8954 37 21 37H35C36.1046 37 37 36.1046 37 35V25C37 23.8954 36.1046 23 35 23L21 23C19.8954 23 19 22.1046 19 21ZM19 21C19 19.8954 19.8954 19 21 19H33M33 30C33 30.2761 32.7761 30.5 32.5 30.5C32.2239 30.5 32 30.2761 32 30C32 29.7239 32.2239 29.5 32.5 29.5C32.7761 29.5 33 29.7239 33 30Z" stroke="#00359E" stroke-width="2" stroke-linecap="round" stroke-linejoin="round"/>
<rect x="4" y="4" width="48" height="48" rx="24" stroke="#EFF4FF" stroke-width="8"/>
</svg>
