<svg width="56" height="56" viewBox="0 0 56 56" fill="none" xmlns="http://www.w3.org/2000/svg">
<rect x="4" y="4" width="48" height="48" rx="24" fill="#D1E0FF"/>
<path d="M37 37H20.6C20.0399 37 19.7599 37 19.546 36.891C19.3578 36.7951 19.2049 36.6422 19.109 36.454C19 36.2401 19 35.9601 19 35.4V19M37 23L31.5657 28.4343C31.3677 28.6323 31.2687 28.7313 31.1545 28.7684C31.0541 28.8011 30.9459 28.8011 30.8455 28.7684C30.7313 28.7313 30.6323 28.6323 30.4343 28.4343L28.5657 26.5657C28.3677 26.3677 28.2687 26.2687 28.1545 26.2316C28.0541 26.1989 27.9459 26.1989 27.8455 26.2316C27.7313 26.2687 27.6323 26.3677 27.4343 26.5657L23 31M37 23H33M37 23V27" stroke="#00359E" stroke-width="2" stroke-linecap="round" stroke-linejoin="round"/>
<rect x="4" y="4" width="48" height="48" rx="24" stroke="#EFF4FF" stroke-width="8"/>
</svg>
