<svg width="56" height="56" viewBox="0 0 56 56" fill="none" xmlns="http://www.w3.org/2000/svg">
<rect x="4" y="4" width="48" height="48" rx="24" fill="#D1E0FF"/>
<path d="M29 21C29 22.1046 26.5376 23 23.5 23C20.4624 23 18 22.1046 18 21M29 21C29 19.8954 26.5376 19 23.5 19C20.4624 19 18 19.8954 18 21M29 21V25.4571C27.7785 25.824 27 26.3789 27 27M18 21V33C18 34.1046 20.4624 35 23.5 35C24.8296 35 26.0491 34.8284 27 34.5429V27M18 25C18 26.1046 20.4624 27 23.5 27C24.8296 27 26.0491 26.8284 27 26.5429M18 29C18 30.1046 20.4624 31 23.5 31C24.8296 31 26.0491 30.8284 27 30.5429M38 27C38 28.1046 35.5376 29 32.5 29C29.4624 29 27 28.1046 27 27M38 27C38 25.8954 35.5376 25 32.5 25C29.4624 25 27 25.8954 27 27M38 27V35C38 36.1046 35.5376 37 32.5 37C29.4624 37 27 36.1046 27 35V27M38 31C38 32.1046 35.5376 33 32.5 33C29.4624 33 27 32.1046 27 31" stroke="#00359E" stroke-width="2" stroke-linecap="round" stroke-linejoin="round"/>
<rect x="4" y="4" width="48" height="48" rx="24" stroke="#EFF4FF" stroke-width="8"/>
</svg>
