<svg width="56" height="56" viewBox="0 0 56 56" fill="none" xmlns="http://www.w3.org/2000/svg">
<rect x="4" y="4" width="48" height="48" rx="24" fill="#D1E0FF"/>
<path d="M22 37H25M31 37H34M33.5 22.5V30.5M19 22.2L19 30.8C19 31.9201 19 32.4802 19.218 32.908C19.4097 33.2843 19.7157 33.5903 20.092 33.782C20.5198 34 21.0799 34 22.2 34L33.8 34C34.9201 34 35.4802 34 35.908 33.782C36.2843 33.5903 36.5903 33.2843 36.782 32.908C37 32.4802 37 31.9201 37 30.8V22.2C37 21.0799 37 20.5198 36.782 20.092C36.5903 19.7157 36.2843 19.4097 35.908 19.218C35.4802 19 34.9201 19 33.8 19L22.2 19C21.0799 19 20.5198 19 20.092 19.218C19.7157 19.4097 19.4097 19.7157 19.218 20.092C19 20.5198 19 21.0799 19 22.2ZM27.5 26.5C27.5 27.8807 26.3807 29 25 29C23.6193 29 22.5 27.8807 22.5 26.5C22.5 25.1193 23.6193 24 25 24C26.3807 24 27.5 25.1193 27.5 26.5Z" stroke="#00359E" stroke-width="2" stroke-linecap="round" stroke-linejoin="round"/>
<rect x="4" y="4" width="48" height="48" rx="24" stroke="#EFF4FF" stroke-width="8"/>
</svg>
