<svg width="56" height="56" viewBox="0 0 56 56" fill="none" xmlns="http://www.w3.org/2000/svg">
<rect x="4" y="4" width="48" height="48" rx="24" fill="#D1E0FF"/>
<path d="M33.2 29.9999C33.477 29.9999 33.6155 29.9999 33.7278 30.0614C33.8204 30.1122 33.9065 30.2074 33.9478 30.3046C33.9978 30.4225 33.9852 30.5479 33.96 30.7986C33.8296 32.0987 33.3822 33.3514 32.6518 34.4445C31.7727 35.7601 30.5233 36.7855 29.0615 37.391C27.5997 37.9965 25.9911 38.1549 24.4393 37.8462C22.8874 37.5375 21.462 36.7756 20.3431 35.6568C19.2243 34.538 18.4624 33.1125 18.1537 31.5606C17.845 30.0088 18.0035 28.4003 18.609 26.9385C19.2145 25.4766 20.2398 24.2272 21.5554 23.3482C22.6486 22.6178 23.9013 22.1703 25.2013 22.0399C25.4521 22.0147 25.5774 22.0022 25.6953 22.0521C25.7925 22.0934 25.8878 22.1796 25.9385 22.2722C26 22.3844 26 22.5229 26 22.7999V29.1999C26 29.48 26 29.62 26.0545 29.7269C26.1024 29.821 26.1789 29.8975 26.273 29.9454C26.38 29.9999 26.52 29.9999 26.8 29.9999H33.2Z" stroke="#00359E" stroke-width="2" stroke-linecap="round" stroke-linejoin="round"/>
<path d="M30 18.7999C30 18.5229 30 18.3844 30.0615 18.2722C30.1122 18.1796 30.2075 18.0934 30.3047 18.0521C30.4225 18.0021 30.5479 18.0147 30.7987 18.0399C32.6271 18.2233 34.346 19.0322 35.6569 20.3431C36.9677 21.6539 37.7767 23.3728 37.9601 25.2012C37.9852 25.452 37.9978 25.5774 37.9478 25.6952C37.9066 25.7924 37.8204 25.8877 37.7278 25.9384C37.6155 25.9999 37.477 25.9999 37.2 25.9999L30.8 25.9999C30.52 25.9999 30.38 25.9999 30.273 25.9454C30.1789 25.8975 30.1024 25.821 30.0545 25.7269C30 25.62 30 25.48 30 25.1999V18.7999Z" stroke="#00359E" stroke-width="2" stroke-linecap="round" stroke-linejoin="round"/>
<rect x="4" y="4" width="48" height="48" rx="24" stroke="#EFF4FF" stroke-width="8"/>
</svg>
