<svg width="56" height="56" viewBox="0 0 56 56" fill="none" xmlns="http://www.w3.org/2000/svg">
<rect x="4" y="4" width="48" height="48" rx="24" fill="#D1E0FF"/>
<path d="M30 25H27.5C26.6716 25 26 25.6716 26 26.5C26 27.3284 26.6716 28 27.5 28H28.5C29.3284 28 30 28.6716 30 29.5C30 30.3284 29.3284 31 28.5 31H26M28 24V25M28 31V32M34 28H34.01M22 28H22.01M18 24.2L18 31.8C18 32.9201 18 33.4802 18.218 33.908C18.4097 34.2843 18.7157 34.5903 19.092 34.782C19.5198 35 20.0799 35 21.2 35L34.8 35C35.9201 35 36.4802 35 36.908 34.782C37.2843 34.5903 37.5903 34.2843 37.782 33.908C38 33.4802 38 32.9201 38 31.8V24.2C38 23.0799 38 22.5198 37.782 22.092C37.5903 21.7157 37.2843 21.4097 36.908 21.218C36.4802 21 35.9201 21 34.8 21L21.2 21C20.0799 21 19.5198 21 19.092 21.218C18.7157 21.4097 18.4097 21.7157 18.218 22.092C18 22.5198 18 23.0799 18 24.2ZM34.5 28C34.5 28.2761 34.2761 28.5 34 28.5C33.7239 28.5 33.5 28.2761 33.5 28C33.5 27.7239 33.7239 27.5 34 27.5C34.2761 27.5 34.5 27.7239 34.5 28ZM22.5 28C22.5 28.2761 22.2761 28.5 22 28.5C21.7239 28.5 21.5 28.2761 21.5 28C21.5 27.7239 21.7239 27.5 22 27.5C22.2761 27.5 22.5 27.7239 22.5 28Z" stroke="#00359E" stroke-width="2" stroke-linecap="round" stroke-linejoin="round"/>
<rect x="4" y="4" width="48" height="48" rx="24" stroke="#EFF4FF" stroke-width="8"/>
</svg>
