<svg width="67" height="66" viewBox="0 0 67 66" fill="none" xmlns="http://www.w3.org/2000/svg">
<rect x="5.5" y="5" width="56" height="56" rx="28" fill="#D1E0FF"/>
<path d="M21.8333 27.1667L31.359 33.8347C32.1304 34.3747 32.516 34.6446 32.9356 34.7492C33.3061 34.8416 33.6937 34.8416 34.0643 34.7492C34.4838 34.6446 34.8695 34.3747 35.6408 33.8347L45.1666 27.1667M27.4333 42.3334H39.5666C41.5268 42.3334 42.5069 42.3334 43.2556 41.9519C43.9141 41.6163 44.4496 41.0809 44.7851 40.4223C45.1666 39.6736 45.1666 38.6935 45.1666 36.7334V29.2667C45.1666 27.3065 45.1666 26.3264 44.7851 25.5777C44.4496 24.9192 43.9141 24.3837 43.2556 24.0482C42.5069 23.6667 41.5268 23.6667 39.5666 23.6667H27.4333C25.4731 23.6667 24.493 23.6667 23.7443 24.0482C23.0857 24.3837 22.5503 24.9192 22.2147 25.5777C21.8333 26.3264 21.8333 27.3065 21.8333 29.2667V36.7334C21.8333 38.6935 21.8333 39.6736 22.2147 40.4223C22.5503 41.0809 23.0857 41.6163 23.7443 41.9519C24.493 42.3334 25.4731 42.3334 27.4333 42.3334Z" stroke="#00359E" stroke-width="2" stroke-linecap="round" stroke-linejoin="round"/>
<rect x="5.5" y="5" width="56" height="56" rx="28" stroke="#EFF4FF" stroke-width="10"/>
</svg>
