<svg width="98" height="25" viewBox="0 0 98 25" fill="none" xmlns="http://www.w3.org/2000/svg">
<rect width="98" height="25" fill="#F5F5F5"/>
<g clip-path="url(#clip0_0_1)">
<rect width="1440" height="2927" transform="translate(-114 -2561)" fill="white"/>
<rect width="1440" height="436" transform="translate(-114 -70)" fill="#00359E"/>
<path d="M15.34 9.54C15.34 10.66 15.07 11.71 14.53 12.69C14.01 13.67 13.18 14.46 12.04 15.06C10.92 15.66 9.5 15.96 7.78 15.96H4.27V24H0.0700002V3.06H7.78C9.4 3.06 10.78 3.34 11.92 3.9C13.06 4.46 13.91 5.23 14.47 6.21C15.05 7.19 15.34 8.3 15.34 9.54ZM7.6 12.57C8.76 12.57 9.62 12.31 10.18 11.79C10.74 11.25 11.02 10.5 11.02 9.54C11.02 7.5 9.88 6.48 7.6 6.48H4.27V12.57H7.6ZM20.452 5.4C19.712 5.4 19.092 5.17 18.592 4.71C18.112 4.23 17.872 3.64 17.872 2.94C17.872 2.24 18.112 1.66 18.592 1.2C19.092 0.719999 19.712 0.479999 20.452 0.479999C21.192 0.479999 21.802 0.719999 22.282 1.2C22.782 1.66 23.032 2.24 23.032 2.94C23.032 3.64 22.782 4.23 22.282 4.71C21.802 5.17 21.192 5.4 20.452 5.4ZM22.522 7.38V24H18.322V7.38H22.522ZM33.0316 24.27C31.6716 24.27 30.4516 24.03 29.3716 23.55C28.2916 23.05 27.4316 22.38 26.7916 21.54C26.1716 20.7 25.8316 19.77 25.7716 18.75H30.0016C30.0816 19.39 30.3916 19.92 30.9316 20.34C31.4916 20.76 32.1816 20.97 33.0016 20.97C33.8016 20.97 34.4216 20.81 34.8616 20.49C35.3216 20.17 35.5516 19.76 35.5516 19.26C35.5516 18.72 35.2716 18.32 34.7116 18.06C34.1716 17.78 33.3016 17.48 32.1016 17.16C30.8616 16.86 29.8416 16.55 29.0416 16.23C28.2616 15.91 27.5816 15.42 27.0016 14.76C26.4416 14.1 26.1616 13.21 26.1616 12.09C26.1616 11.17 26.4216 10.33 26.9416 9.57C27.4816 8.81 28.2416 8.21 29.2216 7.77C30.2216 7.33 31.3916 7.11 32.7316 7.11C34.7116 7.11 36.2916 7.61 37.4716 8.61C38.6516 9.59 39.3016 10.92 39.4216 12.6H35.4016C35.3416 11.94 35.0616 11.42 34.5616 11.04C34.0816 10.64 33.4316 10.44 32.6116 10.44C31.8516 10.44 31.2616 10.58 30.8416 10.86C30.4416 11.14 30.2416 11.53 30.2416 12.03C30.2416 12.59 30.5216 13.02 31.0816 13.32C31.6416 13.6 32.5116 13.89 33.6916 14.19C34.8916 14.49 35.8816 14.8 36.6616 15.12C37.4416 15.44 38.1116 15.94 38.6716 16.62C39.2516 17.28 39.5516 18.16 39.5716 19.26C39.5716 20.22 39.3016 21.08 38.7616 21.84C38.2416 22.6 37.4816 23.2 36.4816 23.64C35.5016 24.06 34.3516 24.27 33.0316 24.27ZM52.3792 7.14C53.6392 7.14 54.7592 7.42 55.7392 7.98C56.7192 8.52 57.4792 9.33 58.0192 10.41C58.5792 11.47 58.8592 12.75 58.8592 14.25V24H54.6592V14.82C54.6592 13.5 54.3292 12.49 53.6692 11.79C53.0092 11.07 52.1092 10.71 50.9692 10.71C49.8092 10.71 48.8892 11.07 48.2092 11.79C47.5492 12.49 47.2192 13.5 47.2192 14.82V24H43.0192V1.8H47.2192V9.45C47.7592 8.73 48.4792 8.17 49.3792 7.77C50.2792 7.35 51.2792 7.14 52.3792 7.14ZM91.1941 7.14C93.1741 7.14 94.7741 7.77 95.9941 9.03C97.2141 10.27 97.8241 12.01 97.8241 14.25V24H93.6241V14.82C93.6241 13.5 93.2941 12.49 92.6341 11.79C91.9741 11.07 91.0741 10.71 89.9341 10.71C88.7741 10.71 87.8541 11.07 87.1741 11.79C86.5141 12.49 86.1841 13.5 86.1841 14.82V24H81.9841V7.38H86.1841V9.45C86.7441 8.73 87.4541 8.17 88.3141 7.77C89.1941 7.35 90.1541 7.14 91.1941 7.14Z" fill="white"/>
<circle cx="70" cy="15.2048" r="6" fill="white"/>
<path d="M70.8906 23L70.1875 24.4141L70.8438 25.7344H70.6406L70.0859 24.6328L69.5312 25.7344H69.3281L69.9844 24.4141L69.2812 23H69.4883L70.0859 24.1875L70.6836 23H70.8906Z" fill="white"/>
<path d="M68.8947 22.7236L67.7039 23.761L67.805 25.2319L67.6173 25.1542L67.5264 23.9242L66.5924 24.7296L66.4047 24.6519L67.5163 23.6832L67.4078 22.1077L67.5991 22.187L67.6968 23.5128L68.7034 22.6444L68.8947 22.7236Z" fill="white"/>
<path d="M65.458 21.5413L63.961 22.044L63.4914 23.4417L63.3478 23.298L63.7345 22.1269L62.5633 22.5136L62.4197 22.37L63.8173 21.9004L64.32 20.4033L64.4664 20.5497L64.0494 21.812L65.3116 21.3949L65.458 21.5413Z" fill="white"/>
<path d="M63.4954 19.9518L61.9199 19.8434L60.9512 20.9549L60.8735 20.7673L61.6789 19.8332L60.449 19.7423L60.3712 19.5547L61.8422 19.6557L62.8795 18.465L62.9588 18.6562L62.0904 19.6628L63.4162 19.7606L63.4954 19.9518Z" fill="white"/>
<path d="M69.1094 8.20483L69.8125 6.79077L69.1562 5.47046H69.3594L69.9141 6.57202L70.4688 5.47046H70.6719L70.0156 6.79077L70.7188 8.20483H70.5117L69.9141 7.01733L69.3164 8.20483H69.1094Z" fill="white"/>
<path d="M64.545 20.7773L62.9786 20.9782L62.2454 22.2574L62.1325 22.0885L62.7403 21.0153L61.5162 21.1661L61.4033 20.9972L62.8657 20.8094L63.6509 19.4391L63.7659 19.6113L63.1105 20.7679L64.43 20.6051L64.545 20.7773Z" fill="white"/>
<path d="M67.2379 22.2551L65.8676 23.0402L65.6798 24.5026L65.5109 24.3898L65.6617 23.1657L64.5885 23.7734L64.4196 23.6606L65.6987 22.9274L65.8997 21.361L66.0719 21.476L65.9091 22.7954L67.0657 22.1401L67.2379 22.2551Z" fill="white"/>
<path d="M63.3116 18.0592L61.7876 17.6454L60.6207 18.5466L60.581 18.3474L61.5532 17.5885L60.3646 17.2594L60.325 17.0601L61.748 17.4462L62.9977 16.4807L63.0381 16.6838L61.99 17.5016L63.2713 17.8561L63.3116 18.0592Z" fill="white"/>
<path d="M62.9637 14.6438L61.714 13.6783L60.291 14.0643L60.3306 13.8651L61.5192 13.536L60.5471 12.7771L60.5867 12.5778L61.7536 13.4791L63.2777 13.0653L63.2373 13.2684L61.956 13.6229L63.0041 14.4407L62.9637 14.6438Z" fill="white"/>
<path d="M63.5552 11.4427L62.7701 10.0725L61.3077 9.8846L61.4205 9.71571L62.6446 9.8665L62.0369 8.7933L62.1497 8.6244L62.8829 9.90358L64.4493 10.1046L64.3343 10.2767L63.0149 10.1139L63.6702 11.2706L63.5552 11.4427Z" fill="white"/>
<path d="M64.7577 9.74981L64.5567 8.18342L63.2775 7.45021L63.4464 7.33736L64.5196 7.94511L64.3688 6.72103L64.5377 6.60818L64.7256 8.07057L66.0958 8.85568L65.9237 8.9707L64.767 8.31537L64.9298 9.63478L64.7577 9.74981Z" fill="white"/>
<path d="M66.2491 8.70024L66.3576 7.12474L65.246 6.15607L65.4337 6.07834L66.3677 6.88378L66.4586 5.6538L66.6463 5.57607L66.5452 7.04701L67.736 8.08436L67.5447 8.16359L66.5381 7.29519L66.4404 8.62101L66.2491 8.70024Z" fill="white"/>
<path d="M67.6925 8.51648L68.1063 6.99241L67.2051 5.8255L67.4043 5.78587L68.1632 6.75805L68.4923 5.56944L68.6916 5.52981L68.3055 6.95278L69.271 8.2025L69.0679 8.24289L68.2501 7.19481L67.8956 8.47609L67.6925 8.51648Z" fill="white"/>
<path d="M64.1987 10.6629L63.696 9.1658L62.2983 8.69624L62.4419 8.55261L63.6131 8.9393L63.2264 7.76816L63.37 7.62453L63.8396 9.02217L65.3367 9.52488L65.1903 9.67127L63.928 9.25419L64.3451 10.5165L64.1987 10.6629Z" fill="white"/>
<path d="M62.8135 13.0995L61.7761 11.9088L60.3052 12.0098L60.3829 11.8221L61.6129 11.7312L60.8075 10.7972L60.8852 10.6095L61.8539 11.7211L63.4294 11.6126L63.3501 11.8039L62.0243 11.9016L62.8927 12.9082L62.8135 13.0995Z" fill="white"/>
<path d="M63 16.0955L61.5859 15.3923L60.2656 16.0486V15.8455L61.3672 15.2908L60.2656 14.7361V14.533L61.5859 15.1892L63 14.4861V14.6931L61.8125 15.2908L63 15.8884V16.0955Z" fill="white"/>
<path d="M70.6522 7.81349L71.843 6.77615L71.7419 5.3052L71.9296 5.38293L72.0205 6.61291L72.9545 5.80747L73.1422 5.8852L72.0306 6.85388L72.1391 8.42938L71.9478 8.35015L71.8501 7.02433L70.8435 7.89272L70.6522 7.81349Z" fill="white"/>
<path d="M74.0888 9.20061L75.5859 8.6979L76.0555 7.30026L76.1991 7.44389L75.8124 8.61504L76.9836 8.22834L77.1272 8.37197L75.7295 8.84154L75.2268 10.3386L75.0804 10.1922L75.4975 8.92992L74.2352 9.34701L74.0888 9.20061Z" fill="white"/>
<path d="M76.0515 10.7901L77.627 10.8986L78.5956 9.78702L78.6734 9.97469L77.8679 10.9087L79.0979 10.9996L79.1756 11.1873L77.7047 11.0862L76.6673 12.277L76.5881 12.0857L77.4565 11.0791L76.1307 10.9814L76.0515 10.7901Z" fill="white"/>
<path d="M75.0019 9.96468L76.5683 9.7637L77.3015 8.48452L77.4143 8.65341L76.8066 9.72662L78.0307 9.57583L78.1435 9.74472L76.6811 9.93259L75.896 11.3028L75.781 11.1307L76.4363 9.97402L75.1169 10.1368L75.0019 9.96468Z" fill="white"/>
<path d="M72.309 8.48681L73.6792 7.7017L73.8671 6.23931L74.036 6.35216L73.8852 7.57624L74.9584 6.96849L75.1273 7.08134L73.8481 7.81455L73.6471 9.38094L73.475 9.26592L73.6378 7.94651L72.4811 8.60184L72.309 8.48681Z" fill="white"/>
<path d="M76.2352 12.6828L77.7593 13.0965L78.9262 12.1953L78.9658 12.3945L77.9937 13.1535L79.1823 13.4826L79.2219 13.6818L77.7989 13.2957L76.5492 14.2612L76.5088 14.0582L77.5569 13.2403L76.2756 12.8858L76.2352 12.6828Z" fill="white"/>
<path d="M76.5832 16.0982L77.8329 17.0637L79.2559 16.6776L79.2162 16.8768L78.0276 17.2059L78.9998 17.9649L78.9602 18.1641L77.7933 17.2629L76.2692 17.6766L76.3096 17.4736L77.5909 17.1191L76.5428 16.3012L76.5832 16.0982Z" fill="white"/>
<path d="M76.0503 19.09L76.8354 20.4602L78.2978 20.6481L78.185 20.817L76.9609 20.6662L77.5686 21.7394L77.4558 21.9083L76.7226 20.6291L75.1562 20.4281L75.2712 20.256L76.5906 20.4188L75.9353 19.2621L76.0503 19.09Z" fill="white"/>
<path d="M74.7892 20.9921L74.9902 22.5585L76.2694 23.2917L76.1005 23.4046L75.0273 22.7968L75.1781 24.0209L75.0092 24.1338L74.8213 22.6714L73.4511 21.8863L73.6232 21.7712L74.7799 22.4266L74.6171 21.1072L74.7892 20.9921Z" fill="white"/>
<path d="M73.2978 22.0417L73.1893 23.6172L74.3009 24.5859L74.1132 24.6636L73.1792 23.8582L73.0883 25.0881L72.9006 25.1659L73.0016 23.6949L71.8109 22.6576L72.0022 22.5784L73.0088 23.4467L73.1065 22.1209L73.2978 22.0417Z" fill="white"/>
<path d="M71.8543 22.2255L71.4406 23.7495L72.3418 24.9164L72.1426 24.9561L71.3837 23.9839L71.0545 25.1725L70.8553 25.2121L71.2414 23.7892L70.2759 22.5394L70.4789 22.4991L71.2968 23.5471L71.6513 22.2659L71.8543 22.2255Z" fill="white"/>
<path d="M76.7334 17.6425L77.7707 18.8332L79.2417 18.7322L79.1639 18.9198L77.934 19.0107L78.7394 19.9448L78.6617 20.1324L77.693 19.0209L76.1175 19.1293L76.1967 18.938L77.5225 18.8403L76.6542 17.8337L76.7334 17.6425Z" fill="white"/>
<path d="M76.5469 14.6465L77.9609 15.3496L79.2812 14.6934L79.2812 14.8965L78.1797 15.4512L79.2812 16.0059L79.2812 16.209L77.9609 15.5527L76.5469 16.2559L76.5469 16.0488L77.7344 15.4512L76.5469 14.8535L76.5469 14.6465Z" fill="white"/>
</g>
<defs>
<clipPath id="clip0_0_1">
<rect width="1440" height="2927" fill="white" transform="translate(-114 -2561)"/>
</clipPath>
</defs>
</svg>
