<svg width="98" height="25" viewBox="0 0 98 25" fill="none" xmlns="http://www.w3.org/2000/svg">
<path d="M15.34 9.54C15.34 10.66 15.07 11.71 14.53 12.69C14.01 13.67 13.18 14.46 12.04 15.06C10.92 15.66 9.5 15.96 7.78 15.96H4.27V24H0.0700002V3.06H7.78C9.4 3.06 10.78 3.34 11.92 3.9C13.06 4.46 13.91 5.23 14.47 6.21C15.05 7.19 15.34 8.3 15.34 9.54ZM7.6 12.57C8.76 12.57 9.62 12.31 10.18 11.79C10.74 11.25 11.02 10.5 11.02 9.54C11.02 7.5 9.88 6.48 7.6 6.48H4.27V12.57H7.6ZM20.452 5.4C19.712 5.4 19.092 5.17 18.592 4.71C18.112 4.23 17.872 3.64 17.872 2.94C17.872 2.24 18.112 1.66 18.592 1.2C19.092 0.719999 19.712 0.479999 20.452 0.479999C21.192 0.479999 21.802 0.719999 22.282 1.2C22.782 1.66 23.032 2.24 23.032 2.94C23.032 3.64 22.782 4.23 22.282 4.71C21.802 5.17 21.192 5.4 20.452 5.4ZM22.522 7.38V24H18.322V7.38H22.522ZM33.0316 24.27C31.6716 24.27 30.4516 24.03 29.3716 23.55C28.2916 23.05 27.4316 22.38 26.7916 21.54C26.1716 20.7 25.8316 19.77 25.7716 18.75H30.0016C30.0816 19.39 30.3916 19.92 30.9316 20.34C31.4916 20.76 32.1816 20.97 33.0016 20.97C33.8016 20.97 34.4216 20.81 34.8616 20.49C35.3216 20.17 35.5516 19.76 35.5516 19.26C35.5516 18.72 35.2716 18.32 34.7116 18.06C34.1716 17.78 33.3016 17.48 32.1016 17.16C30.8616 16.86 29.8416 16.55 29.0416 16.23C28.2616 15.91 27.5816 15.42 27.0016 14.76C26.4416 14.1 26.1616 13.21 26.1616 12.09C26.1616 11.17 26.4216 10.33 26.9416 9.57C27.4816 8.81 28.2416 8.21 29.2216 7.77C30.2216 7.33 31.3916 7.11 32.7316 7.11C34.7116 7.11 36.2916 7.61 37.4716 8.61C38.6516 9.59 39.3016 10.92 39.4216 12.6H35.4016C35.3416 11.94 35.0616 11.42 34.5616 11.04C34.0816 10.64 33.4316 10.44 32.6116 10.44C31.8516 10.44 31.2616 10.58 30.8416 10.86C30.4416 11.14 30.2416 11.53 30.2416 12.03C30.2416 12.59 30.5216 13.02 31.0816 13.32C31.6416 13.6 32.5116 13.89 33.6916 14.19C34.8916 14.49 35.8816 14.8 36.6616 15.12C37.4416 15.44 38.1116 15.94 38.6716 16.62C39.2516 17.28 39.5516 18.16 39.5716 19.26C39.5716 20.22 39.3016 21.08 38.7616 21.84C38.2416 22.6 37.4816 23.2 36.4816 23.64C35.5016 24.06 34.3516 24.27 33.0316 24.27ZM52.3792 7.14C53.6392 7.14 54.7592 7.42 55.7392 7.98C56.7192 8.52 57.4792 9.33 58.0192 10.41C58.5792 11.47 58.8592 12.75 58.8592 14.25V24H54.6592V14.82C54.6592 13.5 54.3292 12.49 53.6692 11.79C53.0092 11.07 52.1092 10.71 50.9692 10.71C49.8092 10.71 48.8892 11.07 48.2092 11.79C47.5492 12.49 47.2192 13.5 47.2192 14.82V24H43.0192V1.8H47.2192V9.45C47.7592 8.73 48.4792 8.17 49.3792 7.77C50.2792 7.35 51.2792 7.14 52.3792 7.14ZM91.1941 7.14C93.1741 7.14 94.7741 7.77 95.9941 9.03C97.2141 10.27 97.8241 12.01 97.8241 14.25V24H93.6241V14.82C93.6241 13.5 93.2941 12.49 92.6341 11.79C91.9741 11.07 91.0741 10.71 89.9341 10.71C88.7741 10.71 87.8541 11.07 87.1741 11.79C86.5141 12.49 86.1841 13.5 86.1841 14.82V24H81.9841V7.38H86.1841V9.45C86.7441 8.73 87.4541 8.17 88.3141 7.77C89.1941 7.35 90.1541 7.14 91.1941 7.14Z" fill="white"/>
</svg>
