<svg width="56" height="56" viewBox="0 0 56 56" fill="none" xmlns="http://www.w3.org/2000/svg">
<rect x="4" y="4" width="48" height="48" rx="24" fill="#FEE4E2"/>
<path d="M32 33L37 28M37 28L32 23M37 28H25M25 19H23.8C22.1198 19 21.2798 19 20.638 19.327C20.0735 19.6146 19.6146 20.0735 19.327 20.638C19 21.2798 19 22.1198 19 23.8V32.2C19 33.8802 19 34.7202 19.327 35.362C19.6146 35.9265 20.0735 36.3854 20.638 36.673C21.2798 37 22.1198 37 23.8 37H25" stroke="#F04438" stroke-width="1.66667" stroke-linecap="round" stroke-linejoin="round"/>
<rect x="4" y="4" width="48" height="48" rx="24" stroke="#FEF3F2" stroke-width="8"/>
</svg>
