<svg width="24" height="24" viewBox="0 0 24 24" fill="none" xmlns="http://www.w3.org/2000/svg">
<rect width="24" height="24" fill="#F5F5F5"/>
<g clip-path="url(#clip0_0_1)">
<rect width="375" height="3201" transform="translate(-160 -3081)" fill="white"/>
<rect width="375" height="938" transform="translate(-160 -818)" fill="#00359E"/>
<g clip-path="url(#clip1_0_1)">
<g clip-path="url(#clip2_0_1)">
<path d="M0.00195312 17.9062V17.9072C0.016362 18.4403 0.0211649 18.9765 0.110692 19.5063C0.205982 20.0668 0.342194 20.6134 0.602033 21.1221C0.953353 21.8107 1.43432 22.3923 2.04493 22.8671C2.48219 23.2081 2.9599 23.4789 3.4887 23.6497C4.25967 23.8984 5.05513 23.9937 5.86222 23.9984C6.36576 24.0016 6.86901 24.0142 7.37275 24.012C11.0309 23.9967 14.6891 24.0385 18.3474 23.9895C18.8328 23.9829 19.3103 23.9237 19.7867 23.8365C20.6999 23.6694 21.5069 23.2794 22.1973 22.6638C23.002 21.9461 23.5449 21.0676 23.7901 20.0075C23.9504 19.3146 23.9906 18.6116 23.9974 17.9061V17.7653C23.9974 17.7108 23.9766 5.77804 23.9747 5.62031C23.9694 5.18709 23.9374 4.75703 23.8563 4.33072C23.7574 3.81123 23.6179 3.305 23.3692 2.83508C23.1064 2.33846 22.7774 1.89207 22.3701 1.50188C21.7468 0.904107 21.0274 0.481447 20.1896 0.257822C19.4332 0.0560984 18.6616 0.0111428 17.8842 0.0119113C17.8817 0.00841074 17.8802 0.00429096 17.8799 0H6.11514C6.11514 0.00403448 6.11514 0.00797289 6.11447 0.0119113C5.67327 0.0199803 5.2315 0.0166182 4.7926 0.0710836C4.31183 0.130832 3.83557 0.22084 3.38054 0.388943C2.66375 0.654065 2.0409 1.06702 1.50893 1.6185C0.906156 2.24288 0.481095 2.96544 0.255933 3.80662C0.0546895 4.55713 0.0108866 5.32253 0.00982996 6.0934" fill="white"/>
<path d="M15 12L10 15L10 9L15 12Z" fill="#00359E"/>
</g>
</g>
<path d="M-144 -31H199V-33H-144V-31Z" fill="white" mask="url(#path-1-inside-1_0_1)"/>
</g>
<defs>
<clipPath id="clip0_0_1">
<rect width="375" height="3201" fill="white" transform="translate(-160 -3081)"/>
</clipPath>
<clipPath id="clip1_0_1">
<rect width="24" height="24" fill="white"/>
</clipPath>
<clipPath id="clip2_0_1">
<rect width="24" height="24.0385" fill="white"/>
</clipPath>
</defs>
</svg>
