<svg width="221" height="53" viewBox="0 0 221 53" fill="none" xmlns="http://www.w3.org/2000/svg">
<path d="M52.642 47.1818V17.1818H57.6989V20.7898H57.9972C58.2623 20.2595 58.6364 19.696 59.1193 19.0994C59.6023 18.4934 60.2557 17.9773 61.0795 17.5511C61.9034 17.1155 62.9545 16.8977 64.233 16.8977C65.9186 16.8977 67.4384 17.3286 68.7926 18.1903C70.1563 19.0426 71.2358 20.3068 72.0312 21.983C72.8362 23.6496 73.2386 25.6951 73.2386 28.1193C73.2386 30.5152 72.8456 32.5511 72.0597 34.2273C71.2737 35.9034 70.2036 37.1818 68.8494 38.0625C67.4953 38.9432 65.9612 39.3835 64.2472 39.3835C62.9972 39.3835 61.9602 39.1752 61.1364 38.7585C60.3125 38.3419 59.6496 37.84 59.1477 37.2528C58.6553 36.6562 58.2718 36.0928 57.9972 35.5625H57.7841V47.1818H52.642ZM57.6847 28.0909C57.6847 29.5019 57.8835 30.7377 58.2812 31.7983C58.6884 32.8589 59.2708 33.6875 60.0284 34.2841C60.7955 34.8712 61.7235 35.1648 62.8125 35.1648C63.9489 35.1648 64.9006 34.8617 65.6676 34.2557C66.4347 33.6402 67.0123 32.8021 67.4006 31.7415C67.7983 30.6714 67.9972 29.4545 67.9972 28.0909C67.9972 26.7367 67.803 25.5341 67.4148 24.483C67.0265 23.4318 66.4489 22.608 65.6818 22.0114C64.9148 21.4148 63.9583 21.1165 62.8125 21.1165C61.714 21.1165 60.7812 21.4053 60.0142 21.983C59.2472 22.5606 58.6648 23.3703 58.267 24.4119C57.8788 25.4536 57.6847 26.6799 57.6847 28.0909ZM83.1205 39.4403C81.7379 39.4403 80.4926 39.1941 79.3847 38.7017C78.2862 38.1998 77.415 37.4612 76.771 36.4858C76.1366 35.5104 75.8193 34.3078 75.8193 32.8778C75.8193 31.6468 76.0466 30.6288 76.5011 29.8239C76.9557 29.0189 77.5759 28.375 78.3619 27.892C79.1479 27.4091 80.0333 27.0445 81.0182 26.7983C82.0125 26.5426 83.04 26.358 84.1006 26.2443C85.379 26.1117 86.4159 25.9934 87.2114 25.8892C88.0068 25.7756 88.5845 25.6051 88.9443 25.3778C89.3136 25.1411 89.4983 24.7765 89.4983 24.2841V24.1989C89.4983 23.1288 89.1811 22.3002 88.5466 21.7131C87.9121 21.1259 86.9983 20.8324 85.8051 20.8324C84.5456 20.8324 83.5466 21.107 82.808 21.6562C82.0788 22.2055 81.5864 22.8542 81.3307 23.6023L76.5295 22.9205C76.9083 21.5947 77.5333 20.4867 78.4045 19.5966C79.2758 18.697 80.3411 18.0246 81.6006 17.5795C82.86 17.125 84.2521 16.8977 85.7767 16.8977C86.8278 16.8977 87.8742 17.0208 88.9159 17.267C89.9576 17.5133 90.9093 17.9205 91.771 18.4886C92.6328 19.0473 93.3241 19.8097 93.8449 20.7756C94.3752 21.7415 94.6403 22.9489 94.6403 24.3977V39H89.6972V36.0028H89.5267C89.2142 36.6089 88.7739 37.1771 88.2057 37.7074C87.647 38.2282 86.9415 38.6496 86.0892 38.9716C85.2464 39.2841 84.2568 39.4403 83.1205 39.4403ZM84.4557 35.6619C85.4879 35.6619 86.3828 35.4583 87.1403 35.0511C87.8979 34.6345 88.4803 34.0852 88.8875 33.4034C89.3042 32.7216 89.5125 31.9782 89.5125 31.1733V28.6023C89.3515 28.7348 89.0769 28.858 88.6886 28.9716C88.3098 29.0852 87.8837 29.1847 87.4102 29.2699C86.9367 29.3551 86.468 29.4309 86.004 29.4972C85.54 29.5634 85.1375 29.6203 84.7966 29.6676C84.0295 29.7718 83.343 29.9422 82.7369 30.179C82.1309 30.4157 81.6527 30.7472 81.3023 31.1733C80.9519 31.59 80.7767 32.1297 80.7767 32.7926C80.7767 33.7396 81.1223 34.4545 81.8136 34.9375C82.5049 35.4205 83.3856 35.6619 84.4557 35.6619ZM101.426 47.1818C100.725 47.1818 100.076 47.125 99.4795 47.0114C98.8924 46.9072 98.4237 46.7841 98.0733 46.642L99.2665 42.6364C100.015 42.8542 100.682 42.9583 101.269 42.9489C101.856 42.9394 102.373 42.7547 102.818 42.3949C103.272 42.0445 103.656 41.4574 103.968 40.6335L104.409 39.4545L96.4966 17.1818H101.951L106.98 33.6591H107.207L112.249 17.1818H117.718L108.982 41.642C108.575 42.7973 108.035 43.7869 107.363 44.6108C106.691 45.4441 105.867 46.0786 104.891 46.5142C103.926 46.9593 102.77 47.1818 101.426 47.1818ZM137.721 22.9489L133.033 23.4602C132.901 22.9867 132.669 22.5417 132.337 22.125C132.015 21.7083 131.58 21.3722 131.03 21.1165C130.481 20.8608 129.809 20.733 129.013 20.733C127.943 20.733 127.044 20.965 126.314 21.429C125.595 21.893 125.24 22.4943 125.249 23.233C125.24 23.8674 125.472 24.3835 125.945 24.7812C126.428 25.179 127.224 25.5057 128.332 25.7614L132.053 26.5568C134.118 27.0019 135.652 27.7074 136.655 28.6733C137.669 29.6392 138.18 30.9034 138.189 32.4659C138.18 33.839 137.778 35.0511 136.982 36.1023C136.196 37.1439 135.102 37.9583 133.701 38.5455C132.299 39.1326 130.689 39.4261 128.871 39.4261C126.201 39.4261 124.051 38.8674 122.422 37.75C120.794 36.6231 119.823 35.0559 119.511 33.0483L124.525 32.5653C124.752 33.5502 125.235 34.2936 125.974 34.7955C126.712 35.2973 127.673 35.5483 128.857 35.5483C130.079 35.5483 131.059 35.2973 131.797 34.7955C132.546 34.2936 132.92 33.6733 132.92 32.9347C132.92 32.3097 132.678 31.7936 132.195 31.3864C131.722 30.9792 130.983 30.6667 129.979 30.4489L126.258 29.6676C124.165 29.232 122.617 28.4981 121.613 27.4659C120.609 26.4242 120.112 25.108 120.121 23.517C120.112 22.1723 120.476 21.0076 121.215 20.0227C121.963 19.0284 123 18.2614 124.326 17.7216C125.661 17.1723 127.2 16.8977 128.942 16.8977C131.499 16.8977 133.511 17.4422 134.979 18.5312C136.457 19.6203 137.37 21.0928 137.721 22.9489ZM152.524 17.1818V21.1591H139.982V17.1818H152.524ZM143.078 11.9545H148.22V32.4375C148.22 33.1288 148.325 33.6591 148.533 34.0284C148.751 34.3883 149.035 34.6345 149.385 34.767C149.736 34.8996 150.124 34.9659 150.55 34.9659C150.872 34.9659 151.166 34.9422 151.431 34.8949C151.705 34.8475 151.914 34.8049 152.056 34.767L152.922 38.7869C152.648 38.8816 152.255 38.9858 151.743 39.0994C151.241 39.2131 150.626 39.2794 149.897 39.2983C148.609 39.3362 147.449 39.142 146.416 38.7159C145.384 38.2803 144.565 37.608 143.959 36.6989C143.363 35.7898 143.069 34.6534 143.078 33.2898V11.9545ZM162.303 39.4403C160.921 39.4403 159.675 39.1941 158.567 38.7017C157.469 38.1998 156.598 37.4612 155.954 36.4858C155.319 35.5104 155.002 34.3078 155.002 32.8778C155.002 31.6468 155.229 30.6288 155.684 29.8239C156.138 29.0189 156.759 28.375 157.545 27.892C158.331 27.4091 159.216 27.0445 160.201 26.7983C161.195 26.5426 162.223 26.358 163.283 26.2443C164.562 26.1117 165.599 25.9934 166.394 25.8892C167.19 25.7756 167.767 25.6051 168.127 25.3778C168.496 25.1411 168.681 24.7765 168.681 24.2841V24.1989C168.681 23.1288 168.364 22.3002 167.729 21.7131C167.095 21.1259 166.181 20.8324 164.988 20.8324C163.728 20.8324 162.729 21.107 161.991 21.6562C161.262 22.2055 160.769 22.8542 160.513 23.6023L155.712 22.9205C156.091 21.5947 156.716 20.4867 157.587 19.5966C158.459 18.697 159.524 18.0246 160.783 17.5795C162.043 17.125 163.435 16.8977 164.96 16.8977C166.011 16.8977 167.057 17.0208 168.099 17.267C169.14 17.5133 170.092 17.9205 170.954 18.4886C171.816 19.0473 172.507 19.8097 173.028 20.7756C173.558 21.7415 173.823 22.9489 173.823 24.3977V39H168.88V36.0028H168.71C168.397 36.6089 167.957 37.1771 167.388 37.7074C166.83 38.2282 166.124 38.6496 165.272 38.9716C164.429 39.2841 163.44 39.4403 162.303 39.4403ZM163.638 35.6619C164.671 35.6619 165.566 35.4583 166.323 35.0511C167.081 34.6345 167.663 34.0852 168.07 33.4034C168.487 32.7216 168.695 31.9782 168.695 31.1733V28.6023C168.534 28.7348 168.26 28.858 167.871 28.9716C167.493 29.0852 167.067 29.1847 166.593 29.2699C166.12 29.3551 165.651 29.4309 165.187 29.4972C164.723 29.5634 164.32 29.6203 163.979 29.6676C163.212 29.7718 162.526 29.9422 161.92 30.179C161.314 30.4157 160.835 30.7472 160.485 31.1733C160.135 31.59 159.96 32.1297 159.96 32.7926C159.96 33.7396 160.305 34.4545 160.996 34.9375C161.688 35.4205 162.568 35.6619 163.638 35.6619ZM187.711 39.4261C185.533 39.4261 183.662 38.9479 182.1 37.9915C180.547 37.035 179.349 35.714 178.506 34.0284C177.673 32.3333 177.256 30.3826 177.256 28.1761C177.256 25.9602 177.682 24.0047 178.535 22.3097C179.387 20.6051 180.589 19.2794 182.142 18.3324C183.705 17.3759 185.552 16.8977 187.682 16.8977C189.453 16.8977 191.02 17.2244 192.384 17.8778C193.757 18.5218 194.851 19.4356 195.665 20.6193C196.48 21.7936 196.944 23.1667 197.057 24.7386H192.142C191.944 23.6875 191.47 22.8116 190.722 22.1108C189.983 21.4006 188.994 21.0455 187.753 21.0455C186.702 21.0455 185.779 21.3295 184.983 21.8977C184.188 22.4564 183.568 23.2614 183.123 24.3125C182.687 25.3636 182.469 26.6231 182.469 28.0909C182.469 29.5777 182.687 30.8561 183.123 31.9261C183.558 32.9867 184.169 33.8059 184.955 34.3835C185.75 34.9517 186.683 35.2358 187.753 35.2358C188.511 35.2358 189.188 35.0937 189.785 34.8097C190.391 34.5161 190.897 34.0947 191.304 33.5455C191.712 32.9962 191.991 32.3286 192.142 31.5426H197.057C196.934 33.0862 196.48 34.4545 195.694 35.6477C194.908 36.8314 193.838 37.7595 192.483 38.4318C191.129 39.0947 189.538 39.4261 187.711 39.4261ZM205.167 32.1534L205.153 25.946H205.977L213.818 17.1818H219.826L210.181 27.9205H209.116L205.167 32.1534ZM200.48 39V9.90909H205.622V39H200.48ZM214.173 39L207.07 29.071L210.536 25.4489L220.323 39H214.173Z" fill="#101828"/>
<g clip-path="url(#clip0_30_96144)">
<mask id="mask0_30_96144" style="mask-type:luminance" maskUnits="userSpaceOnUse" x="0" y="13" width="40" height="40">
<path d="M0 13H40V52.3464H0V13Z" fill="white"/>
</mask>
<g mask="url(#mask0_30_96144)">
<path d="M35.8442 13H2.07791C0.935033 13 0 13.9368 0 15.0818V18.8291C0 19.9741 0.935033 20.9109 2.07791 20.9109H35.7403C36.8831 20.9109 37.8182 19.9741 37.8182 18.8291V15.0818C37.9221 13.9368 36.987 13 35.8442 13ZM35.8442 33.9223H2.07791C0.935033 33.9223 0 34.8591 0 36.0041V39.7514C0 40.8964 0.935033 41.8332 2.07791 41.8332H35.7403C36.8831 41.8332 37.8182 40.8964 37.8182 39.7514V36.0041C37.9221 34.8591 36.987 33.9223 35.8442 33.9223ZM21.0909 44.4355H2.07791C0.935033 44.4355 0 45.3723 0 46.5173V50.2646C0 51.4096 0.935033 52.3464 2.07791 52.3464H21.0909C22.2338 52.3464 23.1688 51.4096 23.1688 50.2646V46.5173C23.1688 45.3723 22.2338 44.4355 21.0909 44.4355ZM37.9221 23.5132H2.07791C0.935033 23.5132 0 24.45 0 25.595V29.3423C0 30.4873 0.935033 31.4241 2.07791 31.4241H37.9221C39.065 31.4241 40 30.4873 40 29.3423V25.595C40 24.45 39.065 23.5132 37.9221 23.5132Z" fill="#0BA4DB"/>
</g>
</g>
<defs>
<clipPath id="clip0_30_96144">
<rect width="40" height="39.3464" fill="white" transform="translate(0 13)"/>
</clipPath>
</defs>
</svg>
