<svg width="56" height="56" viewBox="0 0 56 56" fill="none" xmlns="http://www.w3.org/2000/svg">
<rect x="4" y="4" width="48" height="48" rx="24" fill="#D1E0FF"/>
<path d="M22 22L24 20M24 20L22 18M24 20H22C19.7909 20 18 21.7909 18 24M34 34L32 36M32 36L34 38M32 36H34C36.2091 36 38 34.2091 38 32M26.189 22.5C26.8551 19.9122 29.2042 18 32 18C35.3137 18 38 20.6863 38 24C38 26.7957 36.0879 29.1449 33.5001 29.811M30 32C30 35.3137 27.3137 38 24 38C20.6863 38 18 35.3137 18 32C18 28.6863 20.6863 26 24 26C27.3137 26 30 28.6863 30 32Z" stroke="#00359E" stroke-width="2" stroke-linecap="round" stroke-linejoin="round"/>
<path d="M22.5 33C22.5 33.5523 22.9477 34 23.5 34H24.5C25.0523 34 25.5 33.5523 25.5 33C25.5 32.4477 25.0523 32 24.5 32H23.5C22.9477 32 22.5 31.5523 22.5 31C22.5 30.4477 22.9477 30 23.5 30H24.5C25.0523 30 25.5 30.4477 25.5 31M24 29.5V34.5" stroke="#00359E" stroke-linecap="round" stroke-linejoin="round"/>
<path d="M30.5 25C30.5 25.5523 30.9477 26 31.5 26H32.5C33.0523 26 33.5 25.5523 33.5 25C33.5 24.4477 33.0523 24 32.5 24H31.5C30.9477 24 30.5 23.5523 30.5 23C30.5 22.4477 30.9477 22 31.5 22H32.5C33.0523 22 33.5 22.4477 33.5 23M32 21.5V26.5" stroke="#00359E" stroke-linecap="round" stroke-linejoin="round"/>
<rect x="4" y="4" width="48" height="48" rx="24" stroke="#EFF4FF" stroke-width="8"/>
</svg>
