<svg width="56" height="56" viewBox="0 0 56 56" fill="none" xmlns="http://www.w3.org/2000/svg">
<rect x="4" y="4" width="48" height="48" rx="24" fill="#D1E0FF"/>
<path d="M25 27.5001L27 29.5001L31.5 25.0001M36 28.0001C36 32.9086 30.646 36.4785 28.698 37.615C28.4766 37.7442 28.3659 37.8087 28.2097 37.8422C28.0884 37.8682 27.9116 37.8682 27.7903 37.8422C27.6341 37.8087 27.5234 37.7442 27.302 37.615C25.354 36.4785 20 32.9086 20 28.0001V23.2177C20 22.4182 20 22.0184 20.1308 21.6748C20.2463 21.3713 20.434 21.1004 20.6777 20.8856C20.9535 20.6426 21.3278 20.5022 22.0764 20.2215L27.4382 18.2108C27.6461 18.1328 27.75 18.0938 27.857 18.0784C27.9518 18.0647 28.0482 18.0647 28.143 18.0784C28.25 18.0938 28.3539 18.1328 28.5618 18.2108L33.9236 20.2215C34.6722 20.5022 35.0465 20.6426 35.3223 20.8856C35.566 21.1004 35.7537 21.3713 35.8692 21.6748C36 22.0184 36 22.4182 36 23.2177V28.0001Z" stroke="#00359E" stroke-width="2" stroke-linecap="round" stroke-linejoin="round"/>
<rect x="4" y="4" width="48" height="48" rx="24" stroke="#EFF4FF" stroke-width="8"/>
</svg>
