<svg width="102" height="38" viewBox="0 0 102 38" fill="none" xmlns="http://www.w3.org/2000/svg">
<rect width="102" height="38" fill="#F5F5F5"/>
<rect width="1200" height="960" transform="translate(-549 -96)" fill="white"/>
<path d="M17.34 15.54C17.34 16.66 17.07 17.71 16.53 18.69C16.01 19.67 15.18 20.46 14.04 21.06C12.92 21.66 11.5 21.96 9.78 21.96H6.27V30H2.07V9.06H9.78C11.4 9.06 12.78 9.34 13.92 9.9C15.06 10.46 15.91 11.23 16.47 12.21C17.05 13.19 17.34 14.3 17.34 15.54ZM9.6 18.57C10.76 18.57 11.62 18.31 12.18 17.79C12.74 17.25 13.02 16.5 13.02 15.54C13.02 13.5 11.88 12.48 9.6 12.48H6.27V18.57H9.6ZM22.452 11.4C21.712 11.4 21.092 11.17 20.592 10.71C20.112 10.23 19.872 9.64 19.872 8.94C19.872 8.24 20.112 7.66 20.592 7.2C21.092 6.72 21.712 6.48 22.452 6.48C23.192 6.48 23.802 6.72 24.282 7.2C24.782 7.66 25.032 8.24 25.032 8.94C25.032 9.64 24.782 10.23 24.282 10.71C23.802 11.17 23.192 11.4 22.452 11.4ZM24.522 13.38V30H20.322V13.38H24.522ZM35.0316 30.27C33.6716 30.27 32.4516 30.03 31.3716 29.55C30.2916 29.05 29.4316 28.38 28.7916 27.54C28.1716 26.7 27.8316 25.77 27.7716 24.75H32.0016C32.0816 25.39 32.3916 25.92 32.9316 26.34C33.4916 26.76 34.1816 26.97 35.0016 26.97C35.8016 26.97 36.4216 26.81 36.8616 26.49C37.3216 26.17 37.5516 25.76 37.5516 25.26C37.5516 24.72 37.2716 24.32 36.7116 24.06C36.1716 23.78 35.3016 23.48 34.1016 23.16C32.8616 22.86 31.8416 22.55 31.0416 22.23C30.2616 21.91 29.5816 21.42 29.0016 20.76C28.4416 20.1 28.1616 19.21 28.1616 18.09C28.1616 17.17 28.4216 16.33 28.9416 15.57C29.4816 14.81 30.2416 14.21 31.2216 13.77C32.2216 13.33 33.3916 13.11 34.7316 13.11C36.7116 13.11 38.2916 13.61 39.4716 14.61C40.6516 15.59 41.3016 16.92 41.4216 18.6H37.4016C37.3416 17.94 37.0616 17.42 36.5616 17.04C36.0816 16.64 35.4316 16.44 34.6116 16.44C33.8516 16.44 33.2616 16.58 32.8416 16.86C32.4416 17.14 32.2416 17.53 32.2416 18.03C32.2416 18.59 32.5216 19.02 33.0816 19.32C33.6416 19.6 34.5116 19.89 35.6916 20.19C36.8916 20.49 37.8816 20.8 38.6616 21.12C39.4416 21.44 40.1116 21.94 40.6716 22.62C41.2516 23.28 41.5516 24.16 41.5716 25.26C41.5716 26.22 41.3016 27.08 40.7616 27.84C40.2416 28.6 39.4816 29.2 38.4816 29.64C37.5016 30.06 36.3516 30.27 35.0316 30.27ZM54.3792 13.14C55.6392 13.14 56.7592 13.42 57.7392 13.98C58.7192 14.52 59.4792 15.33 60.0192 16.41C60.5792 17.47 60.8592 18.75 60.8592 20.25V30H56.6592V20.82C56.6592 19.5 56.3292 18.49 55.6692 17.79C55.0092 17.07 54.1092 16.71 52.9692 16.71C51.8092 16.71 50.8892 17.07 50.2092 17.79C49.5492 18.49 49.2192 19.5 49.2192 20.82V30H45.0192V7.8H49.2192V15.45C49.7592 14.73 50.4792 14.17 51.3792 13.77C52.2792 13.35 53.2792 13.14 54.3792 13.14ZM93.1941 13.14C95.1741 13.14 96.7741 13.77 97.9941 15.03C99.2141 16.27 99.8241 18.01 99.8241 20.25V30H95.6241V20.82C95.6241 19.5 95.2941 18.49 94.6341 17.79C93.9741 17.07 93.0741 16.71 91.9341 16.71C90.7741 16.71 89.8541 17.07 89.1741 17.79C88.5141 18.49 88.1841 19.5 88.1841 20.82V30H83.9841V13.38H88.1841V15.45C88.7441 14.73 89.4541 14.17 90.3141 13.77C91.1941 13.35 92.1541 13.14 93.1941 13.14Z" fill="#00359E"/>
<circle cx="72" cy="21.2048" r="6" fill="#00359E"/>
<path d="M72.8906 29L72.1875 30.4141L72.8438 31.7344H72.6406L72.0859 30.6328L71.5312 31.7344H71.3281L71.9844 30.4141L71.2812 29H71.4883L72.0859 30.1875L72.6836 29H72.8906Z" fill="#00359E"/>
<path d="M70.8947 28.7236L69.7039 29.761L69.805 31.2319L69.6173 31.1542L69.5264 29.9242L68.5924 30.7296L68.4047 30.6519L69.5163 29.6832L69.4078 28.1077L69.5991 28.187L69.6968 29.5128L70.7034 28.6444L70.8947 28.7236Z" fill="#00359E"/>
<path d="M67.458 27.5413L65.961 28.044L65.4914 29.4417L65.3478 29.298L65.7345 28.1269L64.5633 28.5136L64.4197 28.37L65.8173 27.9004L66.32 26.4033L66.4664 26.5497L66.0494 27.812L67.3116 27.3949L67.458 27.5413Z" fill="#00359E"/>
<path d="M65.4954 25.9518L63.9199 25.8434L62.9512 26.9549L62.8735 26.7673L63.6789 25.8332L62.449 25.7423L62.3712 25.5547L63.8422 25.6557L64.8795 24.465L64.9588 24.6562L64.0904 25.6628L65.4162 25.7606L65.4954 25.9518Z" fill="#00359E"/>
<path d="M71.1094 14.2048L71.8125 12.7908L71.1562 11.4705H71.3594L71.9141 12.572L72.4688 11.4705H72.6719L72.0156 12.7908L72.7188 14.2048H72.5117L71.9141 13.0173L71.3164 14.2048H71.1094Z" fill="#00359E"/>
<path d="M66.545 26.7773L64.9786 26.9782L64.2454 28.2574L64.1325 28.0885L64.7403 27.0153L63.5162 27.1661L63.4033 26.9972L64.8657 26.8094L65.6509 25.4391L65.7659 25.6113L65.1105 26.7679L66.43 26.6051L66.545 26.7773Z" fill="#00359E"/>
<path d="M69.2379 28.2551L67.8676 29.0402L67.6798 30.5026L67.5109 30.3898L67.6617 29.1657L66.5885 29.7734L66.4196 29.6606L67.6987 28.9274L67.8997 27.361L68.0719 27.476L67.9091 28.7954L69.0657 28.1401L69.2379 28.2551Z" fill="#00359E"/>
<path d="M65.3116 24.0592L63.7876 23.6454L62.6207 24.5466L62.581 24.3474L63.5532 23.5885L62.3646 23.2594L62.325 23.0601L63.748 23.4462L64.9977 22.4807L65.0381 22.6838L63.99 23.5016L65.2713 23.8561L65.3116 24.0592Z" fill="#00359E"/>
<path d="M64.9637 20.6438L63.714 19.6783L62.291 20.0643L62.3306 19.8651L63.5192 19.536L62.5471 18.7771L62.5867 18.5778L63.7536 19.4791L65.2777 19.0653L65.2373 19.2684L63.956 19.6229L65.0041 20.4407L64.9637 20.6438Z" fill="#00359E"/>
<path d="M65.5552 17.4427L64.7701 16.0725L63.3077 15.8846L63.4205 15.7157L64.6446 15.8665L64.0369 14.7933L64.1497 14.6244L64.8829 15.9036L66.4493 16.1046L66.3343 16.2767L65.0149 16.1139L65.6702 17.2706L65.5552 17.4427Z" fill="#00359E"/>
<path d="M66.7577 15.7498L66.5567 14.1834L65.2775 13.4502L65.4464 13.3374L66.5196 13.9451L66.3688 12.721L66.5377 12.6082L66.7256 14.0706L68.0958 14.8557L67.9237 14.9707L66.767 14.3154L66.9298 15.6348L66.7577 15.7498Z" fill="#00359E"/>
<path d="M68.2491 14.7002L68.3576 13.1247L67.246 12.1561L67.4337 12.0783L68.3677 12.8838L68.4586 11.6538L68.6463 11.5761L68.5452 13.047L69.736 14.0844L69.5447 14.1636L68.5381 13.2952L68.4404 14.621L68.2491 14.7002Z" fill="#00359E"/>
<path d="M69.6925 14.5165L70.1063 12.9924L69.2051 11.8255L69.4043 11.7859L70.1632 12.7581L70.4923 11.5694L70.6916 11.5298L70.3055 12.9528L71.271 14.2025L71.0679 14.2429L70.2501 13.1948L69.8956 14.4761L69.6925 14.5165Z" fill="#00359E"/>
<path d="M66.1987 16.6629L65.696 15.1658L64.2983 14.6962L64.4419 14.5526L65.6131 14.9393L65.2264 13.7682L65.37 13.6245L65.8396 15.0222L67.3367 15.5249L67.1903 15.6713L65.928 15.2542L66.3451 16.5165L66.1987 16.6629Z" fill="#00359E"/>
<path d="M64.8135 19.0995L63.7761 17.9088L62.3052 18.0098L62.3829 17.8221L63.6129 17.7312L62.8075 16.7972L62.8852 16.6095L63.8539 17.7211L65.4294 17.6126L65.3501 17.8039L64.0243 17.9016L64.8927 18.9082L64.8135 19.0995Z" fill="#00359E"/>
<path d="M65 22.0955L63.5859 21.3923L62.2656 22.0486V21.8455L63.3672 21.2908L62.2656 20.7361V20.533L63.5859 21.1892L65 20.4861V20.6931L63.8125 21.2908L65 21.8884V22.0955Z" fill="#00359E"/>
<path d="M72.6522 13.8135L73.843 12.7761L73.7419 11.3052L73.9296 11.3829L74.0205 12.6129L74.9545 11.8075L75.1422 11.8852L74.0306 12.8539L74.1391 14.4294L73.9478 14.3501L73.8501 13.0243L72.8435 13.8927L72.6522 13.8135Z" fill="#00359E"/>
<path d="M76.0888 15.2006L77.5859 14.6979L78.0555 13.3003L78.1991 13.4439L77.8124 14.615L78.9836 14.2283L79.1272 14.372L77.7295 14.8415L77.2268 16.3386L77.0804 16.1922L77.4975 14.9299L76.2352 15.347L76.0888 15.2006Z" fill="#00359E"/>
<path d="M78.0515 16.7901L79.627 16.8986L80.5956 15.787L80.6734 15.9747L79.8679 16.9087L81.0979 16.9996L81.1756 17.1873L79.7047 17.0862L78.6673 18.277L78.5881 18.0857L79.4565 17.0791L78.1307 16.9814L78.0515 16.7901Z" fill="#00359E"/>
<path d="M77.0019 15.9647L78.5683 15.7637L79.3015 14.4845L79.4143 14.6534L78.8066 15.7266L80.0307 15.5758L80.1435 15.7447L78.6811 15.9326L77.896 17.3028L77.781 17.1307L78.4363 15.974L77.1169 16.1368L77.0019 15.9647Z" fill="#00359E"/>
<path d="M74.309 14.4868L75.6792 13.7017L75.8671 12.2393L76.036 12.3522L75.8852 13.5762L76.9584 12.9685L77.1273 13.0813L75.8481 13.8146L75.6471 15.3809L75.475 15.2659L75.6378 13.9465L74.4811 14.6018L74.309 14.4868Z" fill="#00359E"/>
<path d="M78.2352 18.6828L79.7593 19.0965L80.9262 18.1953L80.9658 18.3945L79.9937 19.1535L81.1823 19.4826L81.2219 19.6818L79.7989 19.2957L78.5492 20.2612L78.5088 20.0582L79.5569 19.2403L78.2756 18.8858L78.2352 18.6828Z" fill="#00359E"/>
<path d="M78.5832 22.0982L79.8329 23.0637L81.2559 22.6776L81.2162 22.8768L80.0276 23.2059L80.9998 23.9649L80.9602 24.1641L79.7933 23.2629L78.2692 23.6766L78.3096 23.4736L79.5909 23.1191L78.5428 22.3012L78.5832 22.0982Z" fill="#00359E"/>
<path d="M78.0503 25.09L78.8354 26.4602L80.2978 26.6481L80.185 26.817L78.9609 26.6662L79.5686 27.7394L79.4558 27.9083L78.7226 26.6291L77.1562 26.4281L77.2712 26.256L78.5906 26.4188L77.9353 25.2621L78.0503 25.09Z" fill="#00359E"/>
<path d="M76.7892 26.9921L76.9902 28.5585L78.2694 29.2917L78.1005 29.4046L77.0273 28.7968L77.1781 30.0209L77.0092 30.1338L76.8213 28.6714L75.4511 27.8863L75.6232 27.7712L76.7799 28.4266L76.6171 27.1072L76.7892 26.9921Z" fill="#00359E"/>
<path d="M75.2978 28.0417L75.1893 29.6172L76.3009 30.5859L76.1132 30.6636L75.1792 29.8582L75.0883 31.0881L74.9006 31.1659L75.0016 29.6949L73.8109 28.6576L74.0022 28.5784L75.0088 29.4467L75.1065 28.1209L75.2978 28.0417Z" fill="#00359E"/>
<path d="M73.8543 28.2255L73.4406 29.7495L74.3418 30.9164L74.1426 30.9561L73.3837 29.9839L73.0545 31.1725L72.8553 31.2121L73.2414 29.7892L72.2759 28.5394L72.4789 28.4991L73.2968 29.5471L73.6513 28.2659L73.8543 28.2255Z" fill="#00359E"/>
<path d="M78.7334 23.6425L79.7707 24.8332L81.2417 24.7322L81.1639 24.9198L79.934 25.0107L80.7394 25.9448L80.6617 26.1324L79.693 25.0209L78.1175 25.1293L78.1967 24.938L79.5225 24.8403L78.6542 23.8337L78.7334 23.6425Z" fill="#00359E"/>
<path d="M78.5469 20.6465L79.9609 21.3496L81.2812 20.6934L81.2812 20.8965L80.1797 21.4512L81.2812 22.0059L81.2812 22.209L79.9609 21.5527L78.5469 22.2559L78.5469 22.0488L79.7344 21.4512L78.5469 20.8535L78.5469 20.6465Z" fill="#00359E"/>
</svg>
